<?xml version="1.0" encoding="UTF-8" standalone="no" ?>
<!DOCTYPE svg PUBLIC "-//W3C//DTD SVG 1.1//EN" "http://www.w3.org/Graphics/SVG/1.1/DTD/svg11.dtd">
<svg xmlns="http://www.w3.org/2000/svg" xmlns:xlink="http://www.w3.org/1999/xlink" version="1.1" width="180" height="73" viewBox="0 0 180 73" xml:space="preserve">
<desc>Created with Fabric.js 5.2.4</desc>
<defs>
</defs>
<g transform="matrix(1 0 0 1 90 36.5)" id="837dceca-cbe8-4ea2-a5c0-b6c7273e7eac"  >
<rect style="stroke: none; stroke-width: 1; stroke-dasharray: none; stroke-linecap: butt; stroke-dashoffset: 0; stroke-linejoin: miter; stroke-miterlimit: 4; fill: rgb(255,255,255); fill-rule: nonzero; opacity: 1; visibility: hidden;" vector-effect="non-scaling-stroke"  x="-90" y="-36.5" rx="0" ry="0" width="180" height="73" />
</g>
<g transform="matrix(Infinity NaN NaN Infinity 0 0)" id="9e46f133-36a7-46c6-a7f2-267b9d4df16e"  >
</g>
<g transform="matrix(1 0 0 1 90 36.5)"  >
<g style="" vector-effect="non-scaling-stroke"   >
		<g transform="matrix(1 0 0 1 -58.75 0)" clip-path="url(#CLIPPATH_3)"  >
<clipPath id="CLIPPATH_3" >
	<rect transform="matrix(1 0 0 1 58.63 0.02)" id="clip0_4707_114527" x="-90" y="-36.19215" rx="0" ry="0" width="180" height="72.3843" />
</clipPath>
<path style="stroke: none; stroke-width: 1; stroke-dasharray: none; stroke-linecap: butt; stroke-dashoffset: 0; stroke-linejoin: miter; stroke-miterlimit: 4; fill: rgb(255,255,255); fill-rule: evenodd; opacity: 1;" vector-effect="non-scaling-stroke"  transform=" translate(-31.37, -36.25)" d="M 31.3693 0.251465 L 62.5062 18.253 L 62.5062 54.2562 L 31.3693 72.2578 L 0.232422 54.2562 L 0.232422 18.253 L 31.3693 0.251465 Z M 31.3693 3.33595 L 2.9 19.7953 L 2.9 52.714 L 31.3693 69.1733 L 59.8386 52.714 L 59.8386 19.7953 L 31.3693 3.33595 Z" stroke-linecap="round" />
</g>
		<g transform="matrix(1 0 0 1 -58.75 0)" clip-path="url(#CLIPPATH_4)"  >
<clipPath id="CLIPPATH_4" >
	<rect transform="matrix(1 0 0 1 58.63 0.02)" id="clip0_4707_114527" x="-90" y="-36.19215" rx="0" ry="0" width="180" height="72.3843" />
</clipPath>
<path style="stroke: none; stroke-width: 1; stroke-dasharray: none; stroke-linecap: butt; stroke-dashoffset: 0; stroke-linejoin: miter; stroke-miterlimit: 4; fill: rgb(255,255,255); fill-rule: evenodd; opacity: 1;" vector-effect="non-scaling-stroke"  transform=" translate(-31.37, -36.25)" d="M 31.3692 11.5146 L 52.7654 23.8847 L 52.7654 48.6248 L 31.3692 60.9949 L 9.97302 48.6248 L 9.97302 23.8847 L 31.3692 11.5146 Z M 31.3692 13.3315 L 11.5443 24.7931 L 11.5443 47.7164 L 31.3692 59.1781 L 51.1941 47.7164 L 51.1941 24.7931 L 31.3692 13.3315 Z" stroke-linecap="round" />
</g>
		<g transform="matrix(1 0 0 1 -58.75 0)" clip-path="url(#CLIPPATH_5)"  >
<clipPath id="CLIPPATH_5" >
	<rect transform="matrix(1 0 0 1 58.63 0.02)" id="clip0_4707_114527" x="-90" y="-36.19215" rx="0" ry="0" width="180" height="72.3843" />
</clipPath>
<path style="stroke: none; stroke-width: 1; stroke-dasharray: none; stroke-linecap: butt; stroke-dashoffset: 0; stroke-linejoin: miter; stroke-miterlimit: 4; fill: rgb(255,255,255); fill-rule: evenodd; opacity: 1;" vector-effect="non-scaling-stroke"  transform=" translate(-31.37, -36.25)" d="M 46.1742 10.5771 L 60.9786 36.2545 L 46.1742 61.9318 L 16.5652 61.9318 L 1.76074 36.2545 L 16.5652 10.5771 L 46.1742 10.5771 Z M 45.2769 12.1334 L 17.4625 12.1334 L 3.55523 36.2545 L 17.4625 60.3756 L 45.2769 60.3756 L 59.1841 36.2545 L 45.2769 12.1334 Z" stroke-linecap="round" />
</g>
		<g transform="matrix(1 0 0 1 -58.75 0)" clip-path="url(#CLIPPATH_6)"  >
<clipPath id="CLIPPATH_6" >
	<rect transform="matrix(1 0 0 1 58.63 0.02)" id="clip0_4707_114527" x="-90" y="-36.19215" rx="0" ry="0" width="180" height="72.3843" />
</clipPath>
<path style="stroke: none; stroke-width: 1; stroke-dasharray: none; stroke-linecap: butt; stroke-dashoffset: 0; stroke-linejoin: miter; stroke-miterlimit: 4; fill: rgb(255,255,255); fill-rule: evenodd; opacity: 1;" vector-effect="non-scaling-stroke"  transform=" translate(-31.37, -36.25)" d="M 41.6785 18.373 L 51.9879 36.254 L 41.6785 54.135 L 21.0597 54.135 L 10.7502 36.254 L 21.0597 18.373 L 41.6785 18.373 Z M 40.8356 19.835 L 21.9026 19.835 L 12.436 36.254 L 21.9026 52.6731 L 40.8356 52.6731 L 50.3022 36.254 L 40.8356 19.835 Z" stroke-linecap="round" />
</g>
		<g transform="matrix(1 0 0 1 -58.75 0)" clip-path="url(#CLIPPATH_7)"  >
<clipPath id="CLIPPATH_7" >
	<rect transform="matrix(1 0 0 1 58.63 0.02)" id="clip0_4707_114527" x="-90" y="-36.19215" rx="0" ry="0" width="180" height="72.3843" />
</clipPath>
<path style="stroke: none; stroke-width: 1; stroke-dasharray: none; stroke-linecap: butt; stroke-dashoffset: 0; stroke-linejoin: miter; stroke-miterlimit: 4; fill: rgb(255,255,255); fill-rule: evenodd; opacity: 1;" vector-effect="non-scaling-stroke"  transform=" translate(-31.37, -36.25)" d="M 31.3693 19.1035 L 46.2021 27.679 L 46.2021 44.83 L 31.3693 53.4055 L 16.5365 44.83 L 16.5365 27.679 L 31.3693 19.1035 Z M 31.3693 22.147 L 19.1687 29.2008 L 19.1687 43.3082 L 31.3693 50.3619 L 43.5699 43.3082 L 43.5699 29.2008 L 31.3693 22.147 Z" stroke-linecap="round" />
</g>
		<g transform="matrix(1 0 0 1 -58.76 3.53)" clip-path="url(#CLIPPATH_8)"  >
<clipPath id="CLIPPATH_8" >
	<rect transform="matrix(1 0 0 1 58.65 -3.51)" id="clip0_4707_114527" x="-90" y="-36.19215" rx="0" ry="0" width="180" height="72.3843" />
</clipPath>
<path style="stroke: none; stroke-width: 1; stroke-dasharray: none; stroke-linecap: butt; stroke-dashoffset: 0; stroke-linejoin: miter; stroke-miterlimit: 4; fill: rgb(255,255,255); fill-rule: evenodd; opacity: 1;" vector-effect="non-scaling-stroke"  transform=" translate(-31.35, -39.78)" d="M 45.3704 27.3843 L 46.1454 28.7337 L 32.0803 36.8967 L 32.0806 52.1807 L 30.5306 52.1807 L 30.53 36.842 L 16.5597 28.7337 L 17.3347 27.3843 L 31.3526 35.5198 L 45.3704 27.3843 Z" stroke-linecap="round" />
</g>
		<g transform="matrix(1 0 0 1 44 -0.42)" clip-path="url(#CLIPPATH_9)"  >
<clipPath id="CLIPPATH_9" >
	<rect transform="matrix(1 0 0 1 -44.12 0.44)" id="clip0_4707_114527" x="-90" y="-36.19215" rx="0" ry="0" width="180" height="72.3843" />
</clipPath>
<path style="stroke: none; stroke-width: 1; stroke-dasharray: none; stroke-linecap: butt; stroke-dashoffset: 0; stroke-linejoin: miter; stroke-miterlimit: 4; fill: rgb(255,255,255); fill-rule: evenodd; opacity: 1;" vector-effect="non-scaling-stroke"  transform=" translate(-134.12, -35.83)" d="M 104.242 45.3402 C 104.513 45.3402 104.746 45.4377 104.943 45.6328 C 105.14 45.8278 105.238 46.0594 105.238 46.3276 L 105.238 47.6442 C 105.238 47.9124 105.14 48.144 104.943 48.339 C 104.746 48.534 104.513 48.6316 104.242 48.6316 L 89.2307 48.6316 C 88.9602 48.6316 88.7266 48.534 88.5299 48.339 C 88.3332 48.144 88.2349 47.9124 88.2349 47.6442 L 88.2349 24.0196 C 88.2349 23.7514 88.3332 23.5198 88.5299 23.3248 C 88.7266 23.1297 88.9602 23.0322 89.2307 23.0322 L 90.7429 23.0322 C 91.0134 23.0322 91.247 23.1297 91.4437 23.3248 C 91.6404 23.5198 91.7387 23.7514 91.7387 24.0196 L 91.7387 45.3402 L 104.242 45.3402 Z M 114.532 35.2833 L 127.109 47.1687 C 127.257 47.315 127.355 47.443 127.405 47.5527 C 127.454 47.6625 127.478 47.7539 127.478 47.827 C 127.478 48.0464 127.398 48.2354 127.239 48.3939 C 127.079 48.5523 126.888 48.6316 126.667 48.6316 L 124.38 48.6316 C 124.036 48.6316 123.753 48.5645 123.532 48.4304 C 123.311 48.2963 123.151 48.1805 123.052 48.083 L 112.614 38.209 L 112.614 47.6442 C 112.614 47.9124 112.516 48.144 112.319 48.339 C 112.123 48.534 111.889 48.6316 111.619 48.6316 L 110.106 48.6316 C 109.836 48.6316 109.602 48.534 109.406 48.339 C 109.209 48.144 109.111 47.9124 109.111 47.6442 L 109.111 24.0196 C 109.111 23.7514 109.209 23.5198 109.406 23.3248 C 109.602 23.1297 109.836 23.0322 110.106 23.0322 L 111.619 23.0322 C 111.889 23.0322 112.123 23.1297 112.319 23.3248 C 112.516 23.5198 112.614 23.7514 112.614 24.0196 L 112.614 32.5406 L 122.462 23.5808 C 122.561 23.4833 122.72 23.3675 122.942 23.2334 C 123.163 23.0993 123.446 23.0322 123.79 23.0322 L 125.929 23.0322 C 126.151 23.0322 126.341 23.1115 126.501 23.2699 C 126.661 23.4284 126.741 23.6174 126.741 23.8368 C 126.741 23.9099 126.716 24.0013 126.667 24.1111 C 126.618 24.2208 126.519 24.3488 126.372 24.495 L 114.532 35.2833 Z M 142.674 38.5015 L 150.124 24.2025 C 150.272 23.9099 150.475 23.6417 150.733 23.3979 C 150.991 23.1541 151.329 23.0322 151.747 23.0322 L 153.149 23.0322 C 153.419 23.0322 153.653 23.1297 153.85 23.3248 C 154.046 23.5198 154.145 23.7514 154.145 24.0196 L 154.145 47.6442 C 154.145 47.9124 154.046 48.144 153.85 48.339 C 153.653 48.534 153.419 48.6316 153.149 48.6316 L 151.637 48.6316 C 151.366 48.6316 151.133 48.534 150.936 48.339 C 150.739 48.144 150.641 47.9124 150.641 47.6442 L 150.641 30.3098 L 144.887 41.3175 C 144.69 41.6832 144.481 41.9696 144.26 42.1769 C 144.039 42.3841 143.744 42.4877 143.375 42.4877 L 141.973 42.4877 C 141.604 42.4877 141.309 42.3841 141.088 42.1769 C 140.867 41.9696 140.658 41.6832 140.461 41.3175 L 134.707 30.3098 L 134.707 47.6442 C 134.707 47.9124 134.609 48.144 134.412 48.339 C 134.216 48.534 133.982 48.6316 133.712 48.6316 L 132.199 48.6316 C 131.929 48.6316 131.695 48.534 131.499 48.339 C 131.302 48.144 131.203 47.9124 131.203 47.6442 L 131.203 24.0196 C 131.203 23.7514 131.302 23.5198 131.499 23.3248 C 131.695 23.1297 131.929 23.0322 132.199 23.0322 L 133.601 23.0322 C 134.019 23.0322 134.357 23.1541 134.615 23.3979 C 134.873 23.6417 135.076 23.9099 135.224 24.2025 L 142.674 38.5015 Z M 169.008 38.3553 L 162.074 47.7904 C 161.952 47.9367 161.792 48.1135 161.595 48.3207 C 161.398 48.528 161.054 48.6316 160.562 48.6316 L 158.976 48.6316 C 158.755 48.6316 158.564 48.5523 158.405 48.3939 C 158.245 48.2354 158.165 48.0464 158.165 47.827 C 158.165 47.7783 158.171 47.7234 158.183 47.6625 C 158.196 47.6015 158.226 47.5223 158.276 47.4247 L 166.98 35.5759 L 158.644 24.2391 C 158.571 24.0928 158.534 23.9587 158.534 23.8368 C 158.534 23.6174 158.614 23.4284 158.773 23.2699 C 158.933 23.1115 159.124 23.0322 159.345 23.0322 L 161.079 23.0322 C 161.57 23.0322 161.927 23.1541 162.148 23.3979 C 162.37 23.6417 162.529 23.8246 162.628 23.9465 L 169.193 32.8697 L 175.611 23.9831 C 175.709 23.8612 175.869 23.6722 176.09 23.4162 C 176.311 23.1602 176.668 23.0322 177.16 23.0322 L 178.746 23.0322 C 178.967 23.0322 179.157 23.1115 179.317 23.2699 C 179.477 23.4284 179.557 23.6174 179.557 23.8368 C 179.557 23.9587 179.52 24.0928 179.446 24.2391 L 171.221 35.649 L 179.889 47.4247 C 179.938 47.5223 179.969 47.6015 179.981 47.6625 C 179.993 47.7234 180 47.7783 180 47.827 C 180 48.0464 179.92 48.2354 179.76 48.3939 C 179.6 48.5523 179.409 48.6316 179.188 48.6316 L 177.455 48.6316 C 176.963 48.6316 176.619 48.528 176.422 48.3207 C 176.225 48.1135 176.065 47.9367 175.942 47.7904 L 169.008 38.3553 Z" stroke-linecap="round" />
</g>
</g>
</g>
</svg>